<svg width="213" height="203" viewBox="0 0 213 203" fill="none" xmlns="http://www.w3.org/2000/svg">
<g id="Group 2">
<g id="Polygon 3" opacity="0.6" filter="url(#filter0_f_1671_3484)">
<path d="M116.124 93.1015C116.054 88.4028 121.167 85.4504 125.201 87.8609L172.355 116.038C176.286 118.387 176.243 124.095 172.277 126.385L125.949 153.133C121.983 155.422 117.018 152.605 116.949 148.027L116.124 93.1015Z" fill="#8A42B4"/>
</g>
<g id="Polygon 1">
<path d="M12.5001 54.2572C12.5001 49.7425 17.2984 46.8452 21.2938 48.9473L147.573 115.388C151.848 117.637 151.848 123.758 147.573 126.007L21.2938 192.448C17.2984 194.55 12.5001 191.653 12.5001 187.138L12.5001 54.2572Z" fill="url(#paint0_linear_1671_3484)"/>
<path d="M12.5001 54.2572C12.5001 49.7425 17.2984 46.8452 21.2938 48.9473L147.573 115.388C151.848 117.637 151.848 123.758 147.573 126.007L21.2938 192.448C17.2984 194.55 12.5001 191.653 12.5001 187.138L12.5001 54.2572Z" fill="url(#paint1_linear_1671_3484)"/>
</g>
<g id="Polygon 4" style="mix-blend-mode:color-dodge">
<path d="M18.5001 91.3143C18.5001 87.3707 22.2395 84.4995 26.0494 85.5178L148.83 118.336C150.904 118.89 150.766 121.877 148.651 122.239L25.5115 143.301C21.8468 143.928 18.5 141.105 18.5 137.387L18.5001 91.3143Z" fill="url(#paint2_linear_1671_3484)"/>
<path d="M18.5001 91.3143C18.5001 87.3707 22.2395 84.4995 26.0494 85.5178L148.83 118.336C150.904 118.89 150.766 121.877 148.651 122.239L25.5115 143.301C21.8468 143.928 18.5 141.105 18.5 137.387L18.5001 91.3143Z" fill="url(#paint3_linear_1671_3484)"/>
</g>
<g id="Ellipse 9" style="mix-blend-mode:overlay">
<ellipse cx="1.5" cy="20" rx="1.5" ry="20" transform="matrix(0 -1 -1 0 153.401 82.5988)" fill="white"/>
</g>
<g id="Ellipse 42" style="mix-blend-mode:overlay">
<ellipse cx="1.5" cy="20" rx="1.5" ry="20" transform="matrix(0 -1 -1 0 125.193 158)" fill="white"/>
</g>
<g id="Ellipse 43" style="mix-blend-mode:overlay">
<ellipse cx="1.5" cy="20" rx="1.5" ry="20" transform="matrix(0 -1 -1 0 196.193 148)" fill="white"/>
</g>
</g>
<defs>
<filter id="filter0_f_1671_3484" x="71.1234" y="42.0017" width="149.154" height="156.943" filterUnits="userSpaceOnUse" color-interpolation-filters="sRGB">
<feFlood flood-opacity="0" result="BackgroundImageFix"/>
<feBlend mode="normal" in="SourceGraphic" in2="BackgroundImageFix" result="shape"/>
<feGaussianBlur stdDeviation="22.5" result="effect1_foregroundBlur_1671_3484"/>
</filter>
<linearGradient id="paint0_linear_1671_3484" x1="164.383" y1="120.84" x2="14.5001" y2="115.5" gradientUnits="userSpaceOnUse">
<stop stop-opacity="0.8"/>
<stop offset="0.68322" stop-color="#171717" stop-opacity="0.8"/>
<stop offset="1" stop-color="#171717" stop-opacity="0"/>
</linearGradient>
<linearGradient id="paint1_linear_1671_3484" x1="162.999" y1="165" x2="65.4992" y2="175" gradientUnits="userSpaceOnUse">
<stop stop-color="#E1695B"/>
<stop offset="1" stop-color="#171717" stop-opacity="0"/>
</linearGradient>
<linearGradient id="paint2_linear_1671_3484" x1="164.383" y1="120.84" x2="14.5" y2="115.5" gradientUnits="userSpaceOnUse">
<stop stop-opacity="0.8"/>
<stop offset="0.68322" stop-color="#171717" stop-opacity="0.8"/>
<stop offset="1" stop-color="#171717" stop-opacity="0"/>
</linearGradient>
<linearGradient id="paint3_linear_1671_3484" x1="162.999" y1="165" x2="65.4992" y2="175" gradientUnits="userSpaceOnUse">
<stop stop-color="#E1695B"/>
<stop offset="1" stop-color="#171717" stop-opacity="0"/>
</linearGradient>
</defs>
</svg>
