<svg width="1440" height="970" viewBox="0 0 1440 970" fill="none" xmlns="http://www.w3.org/2000/svg">
<g clip-path="url(#clip0_1681_3306)">
<rect width="1440" height="970" fill="black"/>
<circle cx="593.907" cy="600.729" r="1.5" transform="rotate(14.2586 593.907 600.729)" fill="white"/>
<circle cx="764.355" cy="671.457" r="1.5" transform="rotate(-165.741 764.355 671.457)" fill="white"/>
<circle cx="1.5" cy="1.5" r="1.5" transform="matrix(0.969194 0.246298 0.246298 -0.969194 717.424 708.798)" fill="white"/>
<circle cx="1.5" cy="1.5" r="1.5" transform="matrix(-0.969194 -0.246298 -0.246298 0.969194 640.839 563.388)" fill="white"/>
<circle cx="525.205" cy="630.989" r="1.5" transform="rotate(14.2586 525.205 630.989)" fill="white"/>
<circle cx="833.057" cy="641.197" r="1.5" transform="rotate(-165.741 833.057 641.197)" fill="white"/>
<circle cx="1.5" cy="1.5" r="1.5" transform="matrix(0.969194 0.246298 0.246298 -0.969194 671.505 649.409)" fill="white"/>
<circle cx="1.5" cy="1.5" r="1.5" transform="matrix(-0.969194 -0.246298 -0.246298 0.969194 686.757 622.777)" fill="white"/>
<circle cx="374.744" cy="502.82" r="1.5" transform="rotate(14.2586 374.744 502.82)" fill="white"/>
<circle cx="1.5" cy="1.5" r="1.5" transform="matrix(-0.969194 -0.246298 -0.246298 0.969194 411.942 383.739)" fill="white"/>
<circle cx="884.564" cy="725.983" r="1.5" transform="rotate(14.2586 884.564 725.983)" fill="white"/>
<circle cx="473.698" cy="546.203" r="1.5" transform="rotate(-165.741 473.698 546.203)" fill="white"/>
<circle cx="1.5" cy="1.5" r="1.5" transform="matrix(-0.969194 -0.246298 -0.246298 0.969194 325.646 534.679)" fill="white"/>
<g filter="url(#filter0_f_1681_3306)">
<path d="M-121 522C487.687 -291.272 610.725 805.343 1507 313.642" stroke="url(#paint0_linear_1681_3306)" stroke-width="160"/>
</g>
<g filter="url(#filter1_f_1681_3306)">
<path d="M-121 522C487.687 -291.272 610.725 805.343 1507 313.642" stroke="url(#paint1_linear_1681_3306)" stroke-width="40"/>
</g>
<g filter="url(#filter2_f_1681_3306)">
<path d="M1507 408C898.313 842.094 775.275 256.762 -121 519.214" stroke="url(#paint2_linear_1681_3306)" stroke-width="170"/>
</g>
<g filter="url(#filter3_f_1681_3306)">
<path d="M1464 408C855.313 842.094 732.275 256.762 -164 519.214" stroke="url(#paint3_linear_1681_3306)" stroke-width="30"/>
</g>
<g filter="url(#filter4_f_1681_3306)">
<path d="M1507 358C898.313 792.094 775.275 206.762 -121 469.214" stroke="url(#paint4_linear_1681_3306)" stroke-width="170"/>
</g>
<g filter="url(#filter5_f_1681_3306)">
<path d="M1427.93 5.48679C1049.72 822.871 705.518 -61.3626 -1.25608 554.804" stroke="black" stroke-width="111"/>
</g>
<g style="mix-blend-mode:overlay">
<ellipse cx="624.378" cy="348.207" rx="1.5" ry="20" transform="rotate(130.376 624.378 348.207)" fill="white"/>
</g>
<g style="mix-blend-mode:overlay">
<ellipse cx="803.963" cy="417.485" rx="1.5" ry="20" transform="rotate(-49.6238 803.963 417.485)" fill="white"/>
</g>
<g style="mix-blend-mode:overlay">
<ellipse cx="1.5" cy="20" rx="1.5" ry="20" transform="matrix(-0.647804 0.761808 0.761808 0.647804 744.353 439.345)" fill="white"/>
</g>
<g style="mix-blend-mode:overlay">
<ellipse cx="1.5" cy="20" rx="1.5" ry="20" transform="matrix(0.647804 -0.761808 -0.761808 -0.647804 683.988 326.347)" fill="white"/>
</g>
<g style="mix-blend-mode:overlay">
<ellipse cx="555.479" cy="378.016" rx="1.5" ry="20" transform="rotate(130.376 555.479 378.016)" fill="white"/>
</g>
<g style="mix-blend-mode:overlay">
<ellipse cx="872.861" cy="387.676" rx="1.5" ry="20" transform="rotate(-49.6238 872.861 387.676)" fill="white"/>
</g>
<g style="mix-blend-mode:overlay">
<ellipse cx="1.5" cy="20" rx="1.5" ry="20" transform="matrix(-0.647804 0.761808 0.761808 0.647804 698.824 379.656)" fill="white"/>
</g>
<g style="mix-blend-mode:overlay">
<ellipse cx="1.5" cy="20" rx="1.5" ry="20" transform="matrix(0.647804 -0.761808 -0.761808 -0.647804 729.516 386.036)" fill="white"/>
</g>
<g style="mix-blend-mode:overlay">
<ellipse cx="405.862" cy="248.862" rx="1.5" ry="20" transform="rotate(130.376 405.862 248.862)" fill="white"/>
</g>
<g style="mix-blend-mode:overlay">
<ellipse cx="1036.48" cy="528.83" rx="1.5" ry="20" transform="rotate(-49.6238 1036.48 528.83)" fill="white"/>
</g>
<g style="mix-blend-mode:overlay">
<ellipse cx="1.5" cy="20" rx="1.5" ry="20" transform="matrix(-0.647804 0.761808 0.761808 0.647804 986.065 632.494)" fill="white"/>
</g>
<g style="mix-blend-mode:overlay">
<ellipse cx="1.5" cy="20" rx="1.5" ry="20" transform="matrix(0.647804 -0.761808 -0.761808 -0.647804 456.276 145.199)" fill="white"/>
</g>
<g style="mix-blend-mode:overlay">
<ellipse cx="914.206" cy="475.367" rx="1.5" ry="20" transform="rotate(130.376 914.206 475.367)" fill="white"/>
</g>
<g style="mix-blend-mode:overlay">
<ellipse cx="514.134" cy="290.325" rx="1.5" ry="20" transform="rotate(-49.6238 514.134 290.325)" fill="white"/>
</g>
<g style="mix-blend-mode:overlay">
<ellipse cx="1.5" cy="20" rx="1.5" ry="20" transform="matrix(-0.647804 0.761808 0.761808 0.647804 1073.35 482.123)" fill="white"/>
</g>
<g style="mix-blend-mode:overlay">
<ellipse cx="1.5" cy="20" rx="1.5" ry="20" transform="matrix(0.647804 -0.761808 -0.761808 -0.647804 368.991 295.57)" fill="white"/>
</g>
<g style="mix-blend-mode:overlay">
<ellipse cx="1300.8" cy="466.009" rx="1.5" ry="20" transform="rotate(130.376 1300.8 466.009)" fill="white"/>
</g>
<g style="mix-blend-mode:overlay">
<ellipse cx="127.542" cy="299.683" rx="1.5" ry="20" transform="rotate(-49.6238 127.542 299.683)" fill="white"/>
</g>
<g style="mix-blend-mode:overlay">
<ellipse cx="1.5" cy="20" rx="1.5" ry="20" transform="matrix(-0.647804 0.761808 0.761808 0.647804 1394.79 597.315)" fill="white"/>
</g>
<g style="mix-blend-mode:overlay">
<ellipse cx="1.5" cy="20" rx="1.5" ry="20" transform="matrix(0.647804 -0.761808 -0.761808 -0.647804 47.5469 180.377)" fill="white"/>
</g>
<g style="mix-blend-mode:overlay">
<ellipse cx="635.043" cy="357.277" rx="1.5" ry="6" transform="rotate(130.376 635.043 357.277)" fill="white"/>
</g>
<g style="mix-blend-mode:overlay">
<ellipse cx="813.963" cy="426.189" rx="1.5" ry="6" transform="rotate(-49.6238 813.963 426.189)" fill="white"/>
</g>
<g style="mix-blend-mode:overlay">
<ellipse cx="1.5" cy="6" rx="1.5" ry="6" transform="matrix(-0.647804 0.761808 0.761808 0.647804 765.018 457.119)" fill="white"/>
</g>
<g style="mix-blend-mode:overlay">
<ellipse cx="1.5" cy="6" rx="1.5" ry="6" transform="matrix(0.647804 -0.761808 -0.761808 -0.647804 683.988 326.347)" fill="white"/>
</g>
<g style="mix-blend-mode:overlay">
<ellipse cx="566.145" cy="387.086" rx="1.5" ry="6" transform="rotate(130.376 566.145 387.086)" fill="white"/>
</g>
<g style="mix-blend-mode:overlay">
<ellipse cx="882.862" cy="396.381" rx="1.5" ry="6" transform="rotate(-49.6238 882.862 396.381)" fill="white"/>
</g>
<g style="mix-blend-mode:overlay">
<ellipse cx="1.5" cy="6" rx="1.5" ry="6" transform="matrix(-0.647804 0.761808 0.761808 0.647804 719.49 397.43)" fill="white"/>
</g>
<g style="mix-blend-mode:overlay">
<ellipse cx="1.5" cy="6" rx="1.5" ry="6" transform="matrix(0.647804 -0.761808 -0.761808 -0.647804 729.516 386.036)" fill="white"/>
</g>
<g style="mix-blend-mode:overlay">
<ellipse cx="416.527" cy="257.931" rx="1.5" ry="6" transform="rotate(130.376 416.527 257.931)" fill="white"/>
</g>
<g style="mix-blend-mode:overlay">
<ellipse cx="1045.69" cy="536.638" rx="1.5" ry="6" transform="rotate(-49.6238 1045.69 536.638)" fill="white"/>
</g>
<g style="mix-blend-mode:overlay">
<ellipse cx="1.5" cy="6" rx="1.5" ry="6" transform="matrix(-0.647804 0.761808 0.761808 0.647804 1005.94 649.371)" fill="white"/>
</g>
<g style="mix-blend-mode:overlay">
<ellipse cx="1.5" cy="6" rx="1.5" ry="6" transform="matrix(0.647804 -0.761808 -0.761808 -0.647804 456.276 145.199)" fill="white"/>
</g>
<g style="mix-blend-mode:overlay">
<ellipse cx="924.872" cy="484.437" rx="1.5" ry="6" transform="rotate(130.376 924.872 484.437)" fill="white"/>
</g>
<g style="mix-blend-mode:overlay">
<ellipse cx="524.134" cy="299.03" rx="1.5" ry="6" transform="rotate(-49.6238 524.134 299.03)" fill="white"/>
</g>
<g style="mix-blend-mode:overlay">
<ellipse cx="1.5" cy="6" rx="1.5" ry="6" transform="matrix(-0.647804 0.761808 0.761808 0.647804 1093.23 499)" fill="white"/>
</g>
<g style="mix-blend-mode:overlay">
<ellipse cx="1.5" cy="6" rx="1.5" ry="6" transform="matrix(0.647804 -0.761808 -0.761808 -0.647804 368.991 295.57)" fill="white"/>
</g>
<g style="mix-blend-mode:overlay">
<ellipse cx="1311.46" cy="475.078" rx="1.5" ry="6" transform="rotate(130.376 1311.46 475.078)" fill="white"/>
</g>
<g style="mix-blend-mode:overlay">
<ellipse cx="137.543" cy="308.388" rx="1.5" ry="6" transform="rotate(-49.6238 137.543 308.388)" fill="white"/>
</g>
<g style="mix-blend-mode:overlay">
<ellipse cx="1.5" cy="6" rx="1.5" ry="6" transform="matrix(-0.647804 0.761808 0.761808 0.647804 1414.67 614.192)" fill="white"/>
</g>
<g style="mix-blend-mode:overlay">
<ellipse cx="1.5" cy="6" rx="1.5" ry="6" transform="matrix(0.647804 -0.761808 -0.761808 -0.647804 47.5469 180.377)" fill="white"/>
</g>
</g>
<defs>
<filter id="filter0_f_1681_3306" x="-355.048" y="-38.9694" width="2070.53" height="778.905" filterUnits="userSpaceOnUse" color-interpolation-filters="sRGB">
<feFlood flood-opacity="0" result="BackgroundImageFix"/>
<feBlend mode="normal" in="SourceGraphic" in2="BackgroundImageFix" result="shape"/>
<feGaussianBlur stdDeviation="85" result="effect1_foregroundBlur_1681_3306"/>
</filter>
<filter id="filter1_f_1681_3306" x="-197.012" y="131.008" width="1773.63" height="462.976" filterUnits="userSpaceOnUse" color-interpolation-filters="sRGB">
<feFlood flood-opacity="0" result="BackgroundImageFix"/>
<feBlend mode="normal" in="SourceGraphic" in2="BackgroundImageFix" result="shape"/>
<feGaussianBlur stdDeviation="30" result="effect1_foregroundBlur_1681_3306"/>
</filter>
<filter id="filter2_f_1681_3306" x="-338.887" y="144.796" width="2089.24" height="708.19" filterUnits="userSpaceOnUse" color-interpolation-filters="sRGB">
<feFlood flood-opacity="0" result="BackgroundImageFix"/>
<feBlend mode="normal" in="SourceGraphic" in2="BackgroundImageFix" result="shape"/>
<feGaussianBlur stdDeviation="97" result="effect1_foregroundBlur_1681_3306"/>
</filter>
<filter id="filter3_f_1681_3306" x="-232.215" y="331.788" width="1768.92" height="321.21" filterUnits="userSpaceOnUse" color-interpolation-filters="sRGB">
<feFlood flood-opacity="0" result="BackgroundImageFix"/>
<feBlend mode="normal" in="SourceGraphic" in2="BackgroundImageFix" result="shape"/>
<feGaussianBlur stdDeviation="32" result="effect1_foregroundBlur_1681_3306"/>
</filter>
<filter id="filter4_f_1681_3306" x="-798.887" y="-365.204" width="3009.24" height="1628.19" filterUnits="userSpaceOnUse" color-interpolation-filters="sRGB">
<feFlood flood-opacity="0" result="BackgroundImageFix"/>
<feBlend mode="normal" in="SourceGraphic" in2="BackgroundImageFix" result="shape"/>
<feGaussianBlur stdDeviation="327" result="effect1_foregroundBlur_1681_3306"/>
</filter>
<filter id="filter5_f_1681_3306" x="-391.727" y="-371.82" width="2224.02" height="1322.46" filterUnits="userSpaceOnUse" color-interpolation-filters="sRGB">
<feFlood flood-opacity="0" result="BackgroundImageFix"/>
<feBlend mode="normal" in="SourceGraphic" in2="BackgroundImageFix" result="shape"/>
<feGaussianBlur stdDeviation="177" result="effect1_foregroundBlur_1681_3306"/>
</filter>
<linearGradient id="paint0_linear_1681_3306" x1="-220.531" y1="448.526" x2="1605.53" y2="444.447" gradientUnits="userSpaceOnUse">
<stop stop-color="#E1695B"/>
<stop offset="0.18" stop-color="#7C429D"/>
<stop offset="0.48" stop-color="#11116D"/>
<stop offset="1" stop-color="#120C29"/>
</linearGradient>
<linearGradient id="paint1_linear_1681_3306" x1="-220.531" y1="448.526" x2="1605.53" y2="444.447" gradientUnits="userSpaceOnUse">
<stop stop-color="#E1695B"/>
<stop offset="0.18" stop-color="#7C429D"/>
<stop offset="0.48" stop-color="#11116D"/>
<stop offset="1" stop-color="#120C29"/>
</linearGradient>
<linearGradient id="paint2_linear_1681_3306" x1="1398" y1="471.5" x2="-219.577" y2="454.293" gradientUnits="userSpaceOnUse">
<stop stop-color="#E1695B"/>
<stop offset="0.403248" stop-color="#613D75"/>
<stop offset="0.7" stop-color="#120C29"/>
</linearGradient>
<linearGradient id="paint3_linear_1681_3306" x1="1355" y1="471.5" x2="-262.577" y2="454.293" gradientUnits="userSpaceOnUse">
<stop stop-color="#F28074"/>
<stop offset="0.403248" stop-color="#613D75"/>
<stop offset="0.7" stop-color="#120C29"/>
</linearGradient>
<linearGradient id="paint4_linear_1681_3306" x1="1398" y1="421.5" x2="-219.577" y2="404.293" gradientUnits="userSpaceOnUse">
<stop stop-color="#E1695B"/>
<stop offset="0.403248" stop-color="#613D75"/>
<stop offset="0.61" stop-color="#120C29"/>
</linearGradient>
<clipPath id="clip0_1681_3306">
<rect width="1440" height="970" fill="white"/>
</clipPath>
</defs>
</svg>
